<svg width="109" height="34" viewBox="0 0 109 34" fill="none" xmlns="http://www.w3.org/2000/svg">
<path d="M13.544 18.64H13.352H13.544L16.088 8.128L18.152 0.399998H24.152L26.312 34H20.024L19.112 15.664H18.872L15.416 29.2H11.48L8.024 15.664H7.784L6.872 34H0.584L2.744 0.399998H8.744L10.808 8.128L13.352 18.64H13.544ZM45.3583 0.399998C47.5983 2.224 49.2623 4.672 50.3503 7.744C51.4383 10.816 51.9823 13.984 51.9823 17.248C51.9823 20.48 51.4543 23.552 50.3983 26.464C49.3423 29.376 47.6623 31.888 45.3583 34H35.4703C33.1663 31.888 31.4863 29.376 30.4303 26.464C29.3743 23.552 28.8463 20.48 28.8463 17.248C28.8463 13.984 29.3903 10.816 30.4783 7.744C31.5663 4.672 33.2303 2.224 35.4703 0.399998H45.3583ZM38.6863 28.432H42.1423C42.9423 27.504 43.6143 26 44.1583 23.92C44.7343 21.808 45.0223 19.584 45.0223 17.248C45.0223 14.912 44.7503 12.72 44.2063 10.672C43.6623 8.592 42.9903 7.088 42.1903 6.16H38.6863C37.8863 7.088 37.1983 8.592 36.6223 10.672C36.0783 12.72 35.8063 14.912 35.8063 17.248C35.8063 19.584 36.0783 21.808 36.6223 23.92C37.1983 26 37.8863 27.504 38.6863 28.432ZM75.8491 0.399998L69.0331 34H60.0091L53.1931 0.399998H60.1051L62.7451 15.952L64.3771 26.032H64.6651L66.2971 15.952L68.9371 0.399998H75.8491ZM78.4134 34V0.399998H84.9894V34H78.4134ZM94.8965 0.399998L98.3045 14.08H98.4965L101.905 0.399998H108.529L103.921 16.432L108.865 34H102.049L98.4965 19.6H98.3045L94.7525 34H87.9365L92.8805 16.432L88.2725 0.399998H94.8965Z" fill="white"/>
</svg>
