<svg width="52" height="22" viewBox="0 0 52 22" fill="none" xmlns="http://www.w3.org/2000/svg">
<path d="M8.148 6.732C8.148 7.1 8.092 7.436 7.98 7.74C7.876 8.036 7.684 8.292 7.404 8.508C7.132 8.716 6.752 8.88 6.264 9C5.784 9.12 5.172 9.18 4.428 9.18C3.684 9.18 3.068 9.12 2.58 9C2.092 8.88 1.708 8.716 1.428 8.508C1.156 8.292 0.964 8.036 0.852 7.74C0.748 7.436 0.696 7.1 0.696 6.732V2.64C0.696 2.272 0.748 1.94 0.852 1.644C0.964 1.34 1.156 1.08 1.428 0.864C1.708 0.648 2.092 0.48 2.58 0.36C3.068 0.24 3.684 0.18 4.428 0.18C5.172 0.18 5.784 0.24 6.264 0.36C6.752 0.48 7.132 0.648 7.404 0.864C7.684 1.08 7.876 1.34 7.98 1.644C8.092 1.94 8.148 2.272 8.148 2.64V6.732ZM3.42 6.3C3.42 6.46 3.48 6.596 3.6 6.708C3.72 6.812 3.996 6.864 4.428 6.864C4.86 6.864 5.136 6.812 5.256 6.708C5.376 6.596 5.436 6.46 5.436 6.3V3.072C5.436 2.92 5.376 2.792 5.256 2.688C5.136 2.576 4.86 2.52 4.428 2.52C3.996 2.52 3.72 2.576 3.6 2.688C3.48 2.792 3.42 2.92 3.42 3.072V6.3ZM11.9077 9H10.1077C9.95566 9 9.84366 8.968 9.77166 8.904C9.70766 8.832 9.67566 8.72 9.67566 8.568V0.792C9.67566 0.64 9.70766 0.532 9.77166 0.468C9.84366 0.396 9.95566 0.36 10.1077 0.36H11.3557C11.5077 0.36 11.6357 0.384 11.7397 0.431999C11.8517 0.48 11.9597 0.564 12.0637 0.684L14.3917 3.348V0.792C14.3917 0.64 14.4237 0.532 14.4877 0.468C14.5597 0.396 14.6717 0.36 14.8237 0.36H16.6237C16.7757 0.36 16.8837 0.396 16.9477 0.468C17.0197 0.532 17.0557 0.64 17.0557 0.792V8.568C17.0557 8.72 17.0197 8.832 16.9477 8.904C16.8837 8.968 16.7757 9 16.6237 9H14.8237C14.6717 9 14.5597 8.968 14.4877 8.904C14.4237 8.832 14.3917 8.72 14.3917 8.568V7.092L12.3397 4.608V8.568C12.3397 8.72 12.3037 8.832 12.2317 8.904C12.1677 8.968 12.0597 9 11.9077 9ZM25.4141 9H21.6221C21.4701 9 21.3581 8.968 21.2861 8.904C21.2221 8.832 21.1901 8.72 21.1901 8.568V7.164C21.1901 7.012 21.2221 6.904 21.2861 6.84C21.3581 6.768 21.4701 6.732 21.6221 6.732H24.8501C24.9541 6.732 25.0301 6.7 25.0781 6.636C25.1341 6.564 25.1621 6.48 25.1621 6.384C25.1621 6.248 25.1341 6.148 25.0781 6.084C25.0301 6.02 24.9541 5.984 24.8501 5.976L23.0501 5.724C22.4901 5.644 22.0381 5.46 21.6941 5.172C21.3581 4.884 21.1901 4.404 21.1901 3.732V2.472C21.1901 1.792 21.4101 1.272 21.8501 0.912C22.2901 0.544 22.8981 0.36 23.6741 0.36H27.0341C27.1861 0.36 27.2941 0.396 27.3581 0.468C27.4301 0.532 27.4661 0.64 27.4661 0.792V2.22C27.4661 2.372 27.4301 2.484 27.3581 2.556C27.2941 2.62 27.1861 2.652 27.0341 2.652H24.2381C24.1341 2.652 24.0541 2.688 23.9981 2.76C23.9421 2.824 23.9141 2.908 23.9141 3.012C23.9141 3.116 23.9421 3.204 23.9981 3.276C24.0541 3.348 24.1341 3.388 24.2381 3.396L26.0261 3.636C26.5861 3.716 27.0381 3.9 27.3821 4.188C27.7261 4.476 27.8981 4.956 27.8981 5.628V6.888C27.8981 7.568 27.6741 8.092 27.2261 8.46C26.7861 8.82 26.1821 9 25.4141 9ZM30.4376 4.86H29.5136C29.3616 4.86 29.2496 4.828 29.1776 4.764C29.1136 4.692 29.0816 4.58 29.0816 4.428V3.948C29.0816 3.796 29.1136 3.688 29.1776 3.624C29.2496 3.552 29.3616 3.516 29.5136 3.516H30.3416C30.4456 3.516 30.5256 3.488 30.5816 3.432C30.6376 3.368 30.6656 3.284 30.6656 3.18V3H29.3576C29.2056 3 29.0936 2.968 29.0216 2.904C28.9576 2.832 28.9256 2.72 28.9256 2.568V0.792C28.9256 0.64 28.9576 0.532 29.0216 0.468C29.0936 0.396 29.2056 0.36 29.3576 0.36H31.7816C31.9336 0.36 32.0416 0.396 32.1056 0.468C32.1776 0.532 32.2136 0.64 32.2136 0.792V3.048C32.2136 3.656 32.0496 4.112 31.7216 4.416C31.4016 4.712 30.9736 4.86 30.4376 4.86ZM39.6991 9H34.1311C33.9791 9 33.8671 8.968 33.7951 8.904C33.7311 8.832 33.6991 8.72 33.6991 8.568V0.792C33.6991 0.64 33.7311 0.532 33.7951 0.468C33.8671 0.396 33.9791 0.36 34.1311 0.36H39.6991C39.8511 0.36 39.9591 0.396 40.0231 0.468C40.0951 0.532 40.1311 0.64 40.1311 0.792V2.196C40.1311 2.348 40.0951 2.46 40.0231 2.532C39.9591 2.596 39.8511 2.628 39.6991 2.628H36.3871V3.552H38.7271C38.8791 3.552 38.9871 3.588 39.0511 3.66C39.1231 3.724 39.1591 3.832 39.1591 3.984V5.268C39.1591 5.42 39.1231 5.532 39.0511 5.604C38.9871 5.668 38.8791 5.7 38.7271 5.7H36.3871V6.732H39.6991C39.8511 6.732 39.9591 6.768 40.0231 6.84C40.0951 6.904 40.1311 7.012 40.1311 7.164V8.568C40.1311 8.72 40.0951 8.832 40.0231 8.904C39.9591 8.968 39.8511 9 39.6991 9ZM43.7827 9H41.9827C41.8307 9 41.7187 8.968 41.6467 8.904C41.5827 8.832 41.5507 8.72 41.5507 8.568V0.792C41.5507 0.64 41.5827 0.532 41.6467 0.468C41.7187 0.396 41.8307 0.36 41.9827 0.36H43.2307C43.3827 0.36 43.5107 0.384 43.6147 0.431999C43.7267 0.48 43.8347 0.564 43.9387 0.684L46.2667 3.348V0.792C46.2667 0.64 46.2987 0.532 46.3627 0.468C46.4347 0.396 46.5467 0.36 46.6987 0.36H48.4987C48.6507 0.36 48.7587 0.396 48.8227 0.468C48.8947 0.532 48.9307 0.64 48.9307 0.792V8.568C48.9307 8.72 48.8947 8.832 48.8227 8.904C48.7587 8.968 48.6507 9 48.4987 9H46.6987C46.5467 9 46.4347 8.968 46.3627 8.904C46.2987 8.832 46.2667 8.72 46.2667 8.568V7.092L44.2147 4.608V8.568C44.2147 8.72 44.1787 8.832 44.1067 8.904C44.0427 8.968 43.9347 9 43.7827 9Z" fill="black"/>
<path d="M4.836 22H1.044C0.892 22 0.78 21.968 0.708 21.904C0.644 21.832 0.612 21.72 0.612 21.568V20.164C0.612 20.012 0.644 19.904 0.708 19.84C0.78 19.768 0.892 19.732 1.044 19.732H4.272C4.376 19.732 4.452 19.7 4.5 19.636C4.556 19.564 4.584 19.48 4.584 19.384C4.584 19.248 4.556 19.148 4.5 19.084C4.452 19.02 4.376 18.984 4.272 18.976L2.472 18.724C1.912 18.644 1.46 18.46 1.116 18.172C0.78 17.884 0.612 17.404 0.612 16.732V15.472C0.612 14.792 0.832 14.272 1.272 13.912C1.712 13.544 2.32 13.36 3.096 13.36H6.456C6.608 13.36 6.716 13.396 6.78 13.468C6.852 13.532 6.888 13.64 6.888 13.792V15.22C6.888 15.372 6.852 15.484 6.78 15.556C6.716 15.62 6.608 15.652 6.456 15.652H3.66C3.556 15.652 3.476 15.688 3.42 15.76C3.364 15.824 3.336 15.908 3.336 16.012C3.336 16.116 3.364 16.204 3.42 16.276C3.476 16.348 3.556 16.388 3.66 16.396L5.448 16.636C6.008 16.716 6.46 16.9 6.804 17.188C7.148 17.476 7.32 17.956 7.32 18.628V19.888C7.32 20.568 7.096 21.092 6.648 21.46C6.208 21.82 5.604 22 4.836 22ZM12.5955 22H10.6515C10.4995 22 10.3875 21.968 10.3155 21.904C10.2515 21.832 10.2195 21.72 10.2195 21.568V15.676H8.4555C8.3035 15.676 8.1915 15.644 8.1195 15.58C8.0555 15.508 8.0235 15.396 8.0235 15.244V13.792C8.0235 13.64 8.0555 13.532 8.1195 13.468C8.1915 13.396 8.3035 13.36 8.4555 13.36H14.7915C14.9435 13.36 15.0515 13.396 15.1155 13.468C15.1875 13.532 15.2235 13.64 15.2235 13.792V15.244C15.2235 15.396 15.1875 15.508 15.1155 15.58C15.0515 15.644 14.9435 15.676 14.7915 15.676H13.0275V21.568C13.0275 21.72 12.9915 21.832 12.9195 21.904C12.8555 21.968 12.7475 22 12.5955 22ZM19.1025 15.52V17.056H20.0025C20.2105 17.056 20.3505 17.004 20.4225 16.9C20.4945 16.788 20.5305 16.652 20.5305 16.492V16.084C20.5305 15.924 20.4945 15.792 20.4225 15.688C20.3505 15.576 20.2105 15.52 20.0025 15.52H19.1025ZM18.6705 22H16.8225C16.6705 22 16.5585 21.968 16.4865 21.904C16.4225 21.832 16.3905 21.72 16.3905 21.568V13.792C16.3905 13.64 16.4225 13.532 16.4865 13.468C16.5585 13.396 16.6705 13.36 16.8225 13.36H20.8185C21.7145 13.36 22.3305 13.548 22.6665 13.924C23.0105 14.292 23.1825 14.772 23.1825 15.364V15.916C23.1825 16.252 23.1305 16.54 23.0265 16.78C22.9305 17.012 22.7585 17.18 22.5105 17.284C22.9425 17.332 23.2905 17.508 23.5545 17.812C23.8265 18.116 23.9625 18.52 23.9625 19.024V21.568C23.9625 21.72 23.9265 21.832 23.8545 21.904C23.7905 21.968 23.6825 22 23.5305 22H21.6705C21.5185 22 21.4065 21.968 21.3345 21.904C21.2705 21.832 21.2385 21.72 21.2385 21.568V19.732C21.2385 19.556 21.2025 19.428 21.1305 19.348C21.0665 19.26 20.9505 19.216 20.7825 19.216H19.1025V21.568C19.1025 21.72 19.0665 21.832 18.9945 21.904C18.9305 21.968 18.8225 22 18.6705 22ZM31.3085 22H25.7405C25.5885 22 25.4765 21.968 25.4045 21.904C25.3405 21.832 25.3085 21.72 25.3085 21.568V13.792C25.3085 13.64 25.3405 13.532 25.4045 13.468C25.4765 13.396 25.5885 13.36 25.7405 13.36H31.3085C31.4605 13.36 31.5685 13.396 31.6325 13.468C31.7045 13.532 31.7405 13.64 31.7405 13.792V15.196C31.7405 15.348 31.7045 15.46 31.6325 15.532C31.5685 15.596 31.4605 15.628 31.3085 15.628H27.9965V16.552H30.3365C30.4885 16.552 30.5965 16.588 30.6605 16.66C30.7325 16.724 30.7685 16.832 30.7685 16.984V18.268C30.7685 18.42 30.7325 18.532 30.6605 18.604C30.5965 18.668 30.4885 18.7 30.3365 18.7H27.9965V19.732H31.3085C31.4605 19.732 31.5685 19.768 31.6325 19.84C31.7045 19.904 31.7405 20.012 31.7405 20.164V21.568C31.7405 21.72 31.7045 21.832 31.6325 21.904C31.5685 21.968 31.4605 22 31.3085 22ZM36.292 15.88L35.728 17.704H37.612L37.048 15.88C37.016 15.808 36.98 15.756 36.94 15.724C36.908 15.692 36.868 15.676 36.82 15.676H36.52C36.472 15.676 36.428 15.692 36.388 15.724C36.356 15.756 36.324 15.808 36.292 15.88ZM35.608 21.568C35.608 21.72 35.572 21.832 35.5 21.904C35.436 21.968 35.328 22 35.176 22H33.412C33.26 22 33.148 21.968 33.076 21.904C33.012 21.832 32.98 21.72 32.98 21.568V18.4C32.98 18.16 33.016 17.884 33.088 17.572C33.168 17.26 33.288 16.896 33.448 16.48L34.492 13.756C34.54 13.62 34.612 13.52 34.708 13.456C34.812 13.392 34.944 13.36 35.104 13.36H38.332C38.484 13.36 38.608 13.392 38.704 13.456C38.808 13.52 38.884 13.62 38.932 13.756L39.976 16.48C40.136 16.896 40.252 17.26 40.324 17.572C40.404 17.884 40.444 18.16 40.444 18.4V21.568C40.444 21.72 40.408 21.832 40.336 21.904C40.272 21.968 40.164 22 40.012 22H38.2C38.04 22 37.92 21.968 37.84 21.904C37.768 21.832 37.732 21.72 37.732 21.568V19.888H35.608V21.568ZM44.1457 22H42.3577C42.2057 22 42.0937 21.968 42.0217 21.904C41.9577 21.832 41.9257 21.72 41.9257 21.568V13.792C41.9257 13.64 41.9577 13.532 42.0217 13.468C42.0937 13.396 42.2057 13.36 42.3577 13.36H44.2897C44.4177 13.36 44.5217 13.388 44.6017 13.444C44.6897 13.5 44.7697 13.592 44.8417 13.72L45.9217 15.676C45.9617 15.748 45.9937 15.8 46.0177 15.832C46.0497 15.864 46.0897 15.88 46.1377 15.88H46.2457C46.2937 15.88 46.3297 15.864 46.3537 15.832C46.3857 15.8 46.4217 15.748 46.4617 15.676L47.5297 13.72C47.6017 13.592 47.6777 13.5 47.7577 13.444C47.8457 13.388 47.9537 13.36 48.0817 13.36H50.0257C50.1777 13.36 50.2857 13.396 50.3497 13.468C50.4217 13.532 50.4577 13.64 50.4577 13.792V21.568C50.4577 21.72 50.4217 21.832 50.3497 21.904C50.2857 21.968 50.1777 22 50.0257 22H48.1777C48.0257 22 47.9137 21.968 47.8417 21.904C47.7777 21.832 47.7457 21.72 47.7457 21.568V17.344L47.0377 18.652C46.9657 18.788 46.8777 18.888 46.7737 18.952C46.6777 19.008 46.5537 19.036 46.4017 19.036H45.9217C45.7697 19.036 45.6417 19.008 45.5377 18.952C45.4417 18.888 45.3577 18.788 45.2857 18.652L44.5777 17.344V21.568C44.5777 21.72 44.5417 21.832 44.4697 21.904C44.4057 21.968 44.2977 22 44.1457 22Z" fill="black"/>
</svg>
