<svg width="83" height="31" viewBox="0 0 83 31" fill="none" xmlns="http://www.w3.org/2000/svg">
<path d="M39.148 10.732C39.148 11.1 39.092 11.436 38.98 11.74C38.876 12.036 38.684 12.292 38.404 12.508C38.132 12.716 37.752 12.88 37.264 13C36.784 13.12 36.172 13.18 35.428 13.18C34.684 13.18 34.068 13.12 33.58 13C33.092 12.88 32.708 12.716 32.428 12.508C32.156 12.292 31.964 12.036 31.852 11.74C31.748 11.436 31.696 11.1 31.696 10.732V6.64C31.696 6.272 31.748 5.94 31.852 5.644C31.964 5.34 32.156 5.08 32.428 4.864C32.708 4.648 33.092 4.48 33.58 4.36C34.068 4.24 34.684 4.18 35.428 4.18C36.172 4.18 36.784 4.24 37.264 4.36C37.752 4.48 38.132 4.648 38.404 4.864C38.684 5.08 38.876 5.34 38.98 5.644C39.092 5.94 39.148 6.272 39.148 6.64V10.732ZM34.42 10.3C34.42 10.46 34.48 10.596 34.6 10.708C34.72 10.812 34.996 10.864 35.428 10.864C35.86 10.864 36.136 10.812 36.256 10.708C36.376 10.596 36.436 10.46 36.436 10.3V7.072C36.436 6.92 36.376 6.792 36.256 6.688C36.136 6.576 35.86 6.52 35.428 6.52C34.996 6.52 34.72 6.576 34.6 6.688C34.48 6.792 34.42 6.92 34.42 7.072V10.3ZM42.9077 13H41.1077C40.9557 13 40.8437 12.968 40.7717 12.904C40.7077 12.832 40.6757 12.72 40.6757 12.568V4.792C40.6757 4.64 40.7077 4.532 40.7717 4.468C40.8437 4.396 40.9557 4.36 41.1077 4.36H42.3557C42.5077 4.36 42.6357 4.384 42.7397 4.432C42.8517 4.48 42.9597 4.564 43.0637 4.684L45.3917 7.348V4.792C45.3917 4.64 45.4237 4.532 45.4877 4.468C45.5597 4.396 45.6717 4.36 45.8237 4.36H47.6237C47.7757 4.36 47.8837 4.396 47.9477 4.468C48.0197 4.532 48.0557 4.64 48.0557 4.792V12.568C48.0557 12.72 48.0197 12.832 47.9477 12.904C47.8837 12.968 47.7757 13 47.6237 13H45.8237C45.6717 13 45.5597 12.968 45.4877 12.904C45.4237 12.832 45.3917 12.72 45.3917 12.568V11.092L43.3397 8.608V12.568C43.3397 12.72 43.3037 12.832 43.2317 12.904C43.1677 12.968 43.0597 13 42.9077 13ZM56.4141 13H52.6221C52.4701 13 52.3581 12.968 52.2861 12.904C52.2221 12.832 52.1901 12.72 52.1901 12.568V11.164C52.1901 11.012 52.2221 10.904 52.2861 10.84C52.3581 10.768 52.4701 10.732 52.6221 10.732H55.8501C55.9541 10.732 56.0301 10.7 56.0781 10.636C56.1341 10.564 56.1621 10.48 56.1621 10.384C56.1621 10.248 56.1341 10.148 56.0781 10.084C56.0301 10.02 55.9541 9.984 55.8501 9.976L54.0501 9.724C53.4901 9.644 53.0381 9.46 52.6941 9.172C52.3581 8.884 52.1901 8.404 52.1901 7.732V6.472C52.1901 5.792 52.4101 5.272 52.8501 4.912C53.2901 4.544 53.8981 4.36 54.6741 4.36H58.0341C58.1861 4.36 58.2941 4.396 58.3581 4.468C58.4301 4.532 58.4661 4.64 58.4661 4.792V6.22C58.4661 6.372 58.4301 6.484 58.3581 6.556C58.2941 6.62 58.1861 6.652 58.0341 6.652H55.2381C55.1341 6.652 55.0541 6.688 54.9981 6.76C54.9421 6.824 54.9141 6.908 54.9141 7.012C54.9141 7.116 54.9421 7.204 54.9981 7.276C55.0541 7.348 55.1341 7.388 55.2381 7.396L57.0261 7.636C57.5861 7.716 58.0381 7.9 58.3821 8.188C58.7261 8.476 58.8981 8.956 58.8981 9.628V10.888C58.8981 11.568 58.6741 12.092 58.2261 12.46C57.7861 12.82 57.1821 13 56.4141 13ZM61.4376 8.86H60.5136C60.3616 8.86 60.2496 8.828 60.1776 8.764C60.1136 8.692 60.0816 8.58 60.0816 8.428V7.948C60.0816 7.796 60.1136 7.688 60.1776 7.624C60.2496 7.552 60.3616 7.516 60.5136 7.516H61.3416C61.4456 7.516 61.5256 7.488 61.5816 7.432C61.6376 7.368 61.6656 7.284 61.6656 7.18V7H60.3576C60.2056 7 60.0936 6.968 60.0216 6.904C59.9576 6.832 59.9256 6.72 59.9256 6.568V4.792C59.9256 4.64 59.9576 4.532 60.0216 4.468C60.0936 4.396 60.2056 4.36 60.3576 4.36H62.7816C62.9336 4.36 63.0416 4.396 63.1056 4.468C63.1776 4.532 63.2136 4.64 63.2136 4.792V7.048C63.2136 7.656 63.0496 8.112 62.7216 8.416C62.4016 8.712 61.9736 8.86 61.4376 8.86ZM70.6991 13H65.1311C64.9791 13 64.8671 12.968 64.7951 12.904C64.7311 12.832 64.6991 12.72 64.6991 12.568V4.792C64.6991 4.64 64.7311 4.532 64.7951 4.468C64.8671 4.396 64.9791 4.36 65.1311 4.36H70.6991C70.8511 4.36 70.9591 4.396 71.0231 4.468C71.0951 4.532 71.1311 4.64 71.1311 4.792V6.196C71.1311 6.348 71.0951 6.46 71.0231 6.532C70.9591 6.596 70.8511 6.628 70.6991 6.628H67.3871V7.552H69.7271C69.8791 7.552 69.9871 7.588 70.0511 7.66C70.1231 7.724 70.1591 7.832 70.1591 7.984V9.268C70.1591 9.42 70.1231 9.532 70.0511 9.604C69.9871 9.668 69.8791 9.7 69.7271 9.7H67.3871V10.732H70.6991C70.8511 10.732 70.9591 10.768 71.0231 10.84C71.0951 10.904 71.1311 11.012 71.1311 11.164V12.568C71.1311 12.72 71.0951 12.832 71.0231 12.904C70.9591 12.968 70.8511 13 70.6991 13ZM74.7827 13H72.9827C72.8307 13 72.7187 12.968 72.6467 12.904C72.5827 12.832 72.5507 12.72 72.5507 12.568V4.792C72.5507 4.64 72.5827 4.532 72.6467 4.468C72.7187 4.396 72.8307 4.36 72.9827 4.36H74.2307C74.3827 4.36 74.5107 4.384 74.6147 4.432C74.7267 4.48 74.8347 4.564 74.9387 4.684L77.2667 7.348V4.792C77.2667 4.64 77.2987 4.532 77.3627 4.468C77.4347 4.396 77.5467 4.36 77.6987 4.36H79.4987C79.6507 4.36 79.7587 4.396 79.8227 4.468C79.8947 4.532 79.9307 4.64 79.9307 4.792V12.568C79.9307 12.72 79.8947 12.832 79.8227 12.904C79.7587 12.968 79.6507 13 79.4987 13H77.6987C77.5467 13 77.4347 12.968 77.3627 12.904C77.2987 12.832 77.2667 12.72 77.2667 12.568V11.092L75.2147 8.608V12.568C75.2147 12.72 75.1787 12.832 75.1067 12.904C75.0427 12.968 74.9347 13 74.7827 13Z" fill="#E4E4E7"/>
<path d="M35.836 26H32.044C31.892 26 31.78 25.968 31.708 25.904C31.644 25.832 31.612 25.72 31.612 25.568V24.164C31.612 24.012 31.644 23.904 31.708 23.84C31.78 23.768 31.892 23.732 32.044 23.732H35.272C35.376 23.732 35.452 23.7 35.5 23.636C35.556 23.564 35.584 23.48 35.584 23.384C35.584 23.248 35.556 23.148 35.5 23.084C35.452 23.02 35.376 22.984 35.272 22.976L33.472 22.724C32.912 22.644 32.46 22.46 32.116 22.172C31.78 21.884 31.612 21.404 31.612 20.732V19.472C31.612 18.792 31.832 18.272 32.272 17.912C32.712 17.544 33.32 17.36 34.096 17.36H37.456C37.608 17.36 37.716 17.396 37.78 17.468C37.852 17.532 37.888 17.64 37.888 17.792V19.22C37.888 19.372 37.852 19.484 37.78 19.556C37.716 19.62 37.608 19.652 37.456 19.652H34.66C34.556 19.652 34.476 19.688 34.42 19.76C34.364 19.824 34.336 19.908 34.336 20.012C34.336 20.116 34.364 20.204 34.42 20.276C34.476 20.348 34.556 20.388 34.66 20.396L36.448 20.636C37.008 20.716 37.46 20.9 37.804 21.188C38.148 21.476 38.32 21.956 38.32 22.628V23.888C38.32 24.568 38.096 25.092 37.648 25.46C37.208 25.82 36.604 26 35.836 26ZM43.5955 26H41.6515C41.4995 26 41.3875 25.968 41.3155 25.904C41.2515 25.832 41.2195 25.72 41.2195 25.568V19.676H39.4555C39.3035 19.676 39.1915 19.644 39.1195 19.58C39.0555 19.508 39.0235 19.396 39.0235 19.244V17.792C39.0235 17.64 39.0555 17.532 39.1195 17.468C39.1915 17.396 39.3035 17.36 39.4555 17.36H45.7915C45.9435 17.36 46.0515 17.396 46.1155 17.468C46.1875 17.532 46.2235 17.64 46.2235 17.792V19.244C46.2235 19.396 46.1875 19.508 46.1155 19.58C46.0515 19.644 45.9435 19.676 45.7915 19.676H44.0275V25.568C44.0275 25.72 43.9915 25.832 43.9195 25.904C43.8555 25.968 43.7475 26 43.5955 26ZM50.1025 19.52V21.056H51.0025C51.2105 21.056 51.3505 21.004 51.4225 20.9C51.4945 20.788 51.5305 20.652 51.5305 20.492V20.084C51.5305 19.924 51.4945 19.792 51.4225 19.688C51.3505 19.576 51.2105 19.52 51.0025 19.52H50.1025ZM49.6705 26H47.8225C47.6705 26 47.5585 25.968 47.4865 25.904C47.4225 25.832 47.3905 25.72 47.3905 25.568V17.792C47.3905 17.64 47.4225 17.532 47.4865 17.468C47.5585 17.396 47.6705 17.36 47.8225 17.36H51.8185C52.7145 17.36 53.3305 17.548 53.6665 17.924C54.0105 18.292 54.1825 18.772 54.1825 19.364V19.916C54.1825 20.252 54.1305 20.54 54.0265 20.78C53.9305 21.012 53.7585 21.18 53.5105 21.284C53.9425 21.332 54.2905 21.508 54.5545 21.812C54.8265 22.116 54.9625 22.52 54.9625 23.024V25.568C54.9625 25.72 54.9265 25.832 54.8545 25.904C54.7905 25.968 54.6825 26 54.5305 26H52.6705C52.5185 26 52.4065 25.968 52.3345 25.904C52.2705 25.832 52.2385 25.72 52.2385 25.568V23.732C52.2385 23.556 52.2025 23.428 52.1305 23.348C52.0665 23.26 51.9505 23.216 51.7825 23.216H50.1025V25.568C50.1025 25.72 50.0665 25.832 49.9945 25.904C49.9305 25.968 49.8225 26 49.6705 26ZM62.3085 26H56.7405C56.5885 26 56.4765 25.968 56.4045 25.904C56.3405 25.832 56.3085 25.72 56.3085 25.568V17.792C56.3085 17.64 56.3405 17.532 56.4045 17.468C56.4765 17.396 56.5885 17.36 56.7405 17.36H62.3085C62.4605 17.36 62.5685 17.396 62.6325 17.468C62.7045 17.532 62.7405 17.64 62.7405 17.792V19.196C62.7405 19.348 62.7045 19.46 62.6325 19.532C62.5685 19.596 62.4605 19.628 62.3085 19.628H58.9965V20.552H61.3365C61.4885 20.552 61.5965 20.588 61.6605 20.66C61.7325 20.724 61.7685 20.832 61.7685 20.984V22.268C61.7685 22.42 61.7325 22.532 61.6605 22.604C61.5965 22.668 61.4885 22.7 61.3365 22.7H58.9965V23.732H62.3085C62.4605 23.732 62.5685 23.768 62.6325 23.84C62.7045 23.904 62.7405 24.012 62.7405 24.164V25.568C62.7405 25.72 62.7045 25.832 62.6325 25.904C62.5685 25.968 62.4605 26 62.3085 26ZM67.292 19.88L66.728 21.704H68.612L68.048 19.88C68.016 19.808 67.98 19.756 67.94 19.724C67.908 19.692 67.868 19.676 67.82 19.676H67.52C67.472 19.676 67.428 19.692 67.388 19.724C67.356 19.756 67.324 19.808 67.292 19.88ZM66.608 25.568C66.608 25.72 66.572 25.832 66.5 25.904C66.436 25.968 66.328 26 66.176 26H64.412C64.26 26 64.148 25.968 64.076 25.904C64.012 25.832 63.98 25.72 63.98 25.568V22.4C63.98 22.16 64.016 21.884 64.088 21.572C64.168 21.26 64.288 20.896 64.448 20.48L65.492 17.756C65.54 17.62 65.612 17.52 65.708 17.456C65.812 17.392 65.944 17.36 66.104 17.36H69.332C69.484 17.36 69.608 17.392 69.704 17.456C69.808 17.52 69.884 17.62 69.932 17.756L70.976 20.48C71.136 20.896 71.252 21.26 71.324 21.572C71.404 21.884 71.444 22.16 71.444 22.4V25.568C71.444 25.72 71.408 25.832 71.336 25.904C71.272 25.968 71.164 26 71.012 26H69.2C69.04 26 68.92 25.968 68.84 25.904C68.768 25.832 68.732 25.72 68.732 25.568V23.888H66.608V25.568ZM75.1457 26H73.3577C73.2057 26 73.0937 25.968 73.0217 25.904C72.9577 25.832 72.9257 25.72 72.9257 25.568V17.792C72.9257 17.64 72.9577 17.532 73.0217 17.468C73.0937 17.396 73.2057 17.36 73.3577 17.36H75.2897C75.4177 17.36 75.5217 17.388 75.6017 17.444C75.6897 17.5 75.7697 17.592 75.8417 17.72L76.9217 19.676C76.9617 19.748 76.9937 19.8 77.0177 19.832C77.0497 19.864 77.0897 19.88 77.1377 19.88H77.2457C77.2937 19.88 77.3297 19.864 77.3537 19.832C77.3857 19.8 77.4217 19.748 77.4617 19.676L78.5297 17.72C78.6017 17.592 78.6777 17.5 78.7577 17.444C78.8457 17.388 78.9537 17.36 79.0817 17.36H81.0257C81.1777 17.36 81.2857 17.396 81.3497 17.468C81.4217 17.532 81.4577 17.64 81.4577 17.792V25.568C81.4577 25.72 81.4217 25.832 81.3497 25.904C81.2857 25.968 81.1777 26 81.0257 26H79.1777C79.0257 26 78.9137 25.968 78.8417 25.904C78.7777 25.832 78.7457 25.72 78.7457 25.568V21.344L78.0377 22.652C77.9657 22.788 77.8777 22.888 77.7737 22.952C77.6777 23.008 77.5537 23.036 77.4017 23.036H76.9217C76.7697 23.036 76.6417 23.008 76.5377 22.952C76.4417 22.888 76.3577 22.788 76.2857 22.652L75.5777 21.344V25.568C75.5777 25.72 75.5417 25.832 75.4697 25.904C75.4057 25.968 75.2977 26 75.1457 26Z" fill="#E4E4E7"/>
<path d="M19.523 14.4143L5.72565 22.3803C3.18109 23.8496 0 22.0131 0 19.0744V25.2168C0 28.9559 4.04779 31.2928 7.28598 29.4234L24.8424 19.2872C28.0806 17.4175 28.0806 12.7435 24.8424 10.874L19.523 7.80286C22.0679 9.27218 22.0679 12.9454 19.523 14.4143Z" fill="url(#paint0_linear_23_309)"/>
<path d="M0 4.9459V11.0883C0 8.14966 3.18109 6.31314 5.72565 7.78246L19.523 15.7482C22.0679 17.2175 22.0679 20.8905 19.523 22.3599L24.8424 19.2888C28.0806 17.419 28.0806 12.7451 24.8424 10.8755L7.28598 0.739291C6.50344 0.287585 5.67312 0.0813221 4.86476 0.0813221C2.3274 0.0809707 0 2.11022 0 4.9459Z" fill="url(#paint1_linear_23_309)"/>
<path d="M0 4.94593V19.0744C0 22.0129 3.18109 23.8496 5.72565 22.3803L6.8796 21.7142V7.11626C6.8796 4.1778 10.0605 2.34128 12.6054 3.8106L7.28598 0.73932C6.50344 0.287614 5.67312 0.0813519 4.86476 0.0813519C2.3274 0.0810005 0 2.11025 0 4.94593Z" fill="url(#paint2_linear_23_309)"/>
<path d="M9.87668 12.0001C9.87578 12.0002 9.87489 12.0004 9.87399 12.0004C9.80317 12.002 9.73337 12.0132 9.66591 12.0326C9.64328 12.0391 9.62064 12.0464 9.59857 12.0549C9.56305 12.0684 9.52843 12.0845 9.49493 12.1027C9.20953 12.2575 9 12.5757 9 12.9729V15.7987V17.0271C9 17.7749 9.74222 18.2423 10.336 17.8684L12.5803 16.4548L12.5806 16.4547L12.5847 16.4522C12.5832 16.453 12.5819 16.4541 12.5804 16.4551L13.5547 15.8415C13.8516 15.6545 14 15.3272 14 15.0001C14 14.6728 13.8516 14.3457 13.5547 14.1585L12.5804 13.545C12.5821 13.5461 12.5838 13.5473 12.5855 13.5484L11.3113 12.7458L10.336 12.1316C10.1923 12.0412 10.04 12 9.89169 12C9.88665 12 9.88172 12 9.87668 12.0001ZM12.5804 13.545C12.5801 13.5447 12.5799 13.5445 12.5795 13.5443L12.5804 13.545ZM12.5795 16.4556C12.5799 16.4555 12.5802 16.4552 12.5804 16.4551L12.5795 16.4556Z" fill="url(#paint3_linear_23_309)"/>
<defs>
<linearGradient id="paint0_linear_23_309" x1="24.0548" y1="9.4692" x2="1.31051" y2="28.5539" gradientUnits="userSpaceOnUse">
<stop stop-color="#E50000"/>
<stop offset="1" stop-color="#FF9999"/>
</linearGradient>
<linearGradient id="paint1_linear_23_309" x1="13.6355" y1="0.0812845" x2="13.6355" y2="22.3598" gradientUnits="userSpaceOnUse">
<stop stop-color="#E50000"/>
<stop offset="1" stop-color="#FF9999"/>
</linearGradient>
<linearGradient id="paint2_linear_23_309" x1="6.30267" y1="0.0813155" x2="6.30267" y2="22.8974" gradientUnits="userSpaceOnUse">
<stop stop-color="#FF9999"/>
<stop offset="1" stop-color="#E50000"/>
</linearGradient>
<linearGradient id="paint3_linear_23_309" x1="8.67169" y1="17.0721" x2="12.8003" y2="13.2873" gradientUnits="userSpaceOnUse">
<stop stop-color="#E50000"/>
<stop offset="0.999524" stop-color="#FF9999"/>
</linearGradient>
</defs>
</svg>
