<svg width="102" height="28" viewBox="0 0 102 28" fill="none" xmlns="http://www.w3.org/2000/svg">
<path d="M40.543 9.787C40.543 10.3083 40.4637 10.7843 40.305 11.215C40.1577 11.6343 39.8857 11.997 39.489 12.303C39.1037 12.5977 38.5653 12.83 37.874 13C37.194 13.17 36.327 13.255 35.273 13.255C34.219 13.255 33.3463 13.17 32.655 13C31.9637 12.83 31.4197 12.5977 31.023 12.303C30.6377 11.997 30.3657 11.6343 30.207 11.215C30.0597 10.7843 29.986 10.3083 29.986 9.787V3.99C29.986 3.46867 30.0597 2.99833 30.207 2.579C30.3657 2.14833 30.6377 1.78 31.023 1.474C31.4197 1.168 31.9637 0.929999 32.655 0.76C33.3463 0.59 34.219 0.505 35.273 0.505C36.327 0.505 37.194 0.59 37.874 0.76C38.5653 0.929999 39.1037 1.168 39.489 1.474C39.8857 1.78 40.1577 2.14833 40.305 2.579C40.4637 2.99833 40.543 3.46867 40.543 3.99V9.787ZM33.845 9.175C33.845 9.40167 33.93 9.59433 34.1 9.753C34.27 9.90033 34.661 9.974 35.273 9.974C35.885 9.974 36.276 9.90033 36.446 9.753C36.616 9.59433 36.701 9.40167 36.701 9.175V4.602C36.701 4.38667 36.616 4.20533 36.446 4.058C36.276 3.89933 35.885 3.82 35.273 3.82C34.661 3.82 34.27 3.89933 34.1 4.058C33.93 4.20533 33.845 4.38667 33.845 4.602V9.175ZM45.8692 13H43.3192C43.1038 13 42.9452 12.9547 42.8432 12.864C42.7525 12.762 42.7072 12.6033 42.7072 12.388V1.372C42.7072 1.15667 42.7525 1.00367 42.8432 0.913C42.9452 0.811 43.1038 0.76 43.3192 0.76H45.0872C45.3025 0.76 45.4838 0.793999 45.6312 0.861999C45.7898 0.93 45.9428 1.049 46.0902 1.219L49.3882 4.993V1.372C49.3882 1.15667 49.4335 1.00367 49.5242 0.913C49.6262 0.811 49.7848 0.76 50.0002 0.76H52.5502C52.7655 0.76 52.9185 0.811 53.0092 0.913C53.1112 1.00367 53.1622 1.15667 53.1622 1.372V12.388C53.1622 12.6033 53.1112 12.762 53.0092 12.864C52.9185 12.9547 52.7655 13 52.5502 13H50.0002C49.7848 13 49.6262 12.9547 49.5242 12.864C49.4335 12.762 49.3882 12.6033 49.3882 12.388V10.297L46.4812 6.778V12.388C46.4812 12.6033 46.4302 12.762 46.3282 12.864C46.2375 12.9547 46.0845 13 45.8692 13ZM65.0033 13H59.6313C59.416 13 59.2573 12.9547 59.1553 12.864C59.0647 12.762 59.0193 12.6033 59.0193 12.388V10.399C59.0193 10.1837 59.0647 10.0307 59.1553 9.94C59.2573 9.838 59.416 9.787 59.6313 9.787H64.2043C64.3517 9.787 64.4593 9.74167 64.5273 9.651C64.6067 9.549 64.6463 9.43 64.6463 9.294C64.6463 9.10133 64.6067 8.95967 64.5273 8.869C64.4593 8.77833 64.3517 8.72733 64.2043 8.716L61.6543 8.359C60.861 8.24567 60.2207 7.985 59.7333 7.577C59.2573 7.169 59.0193 6.489 59.0193 5.537V3.752C59.0193 2.78867 59.331 2.052 59.9543 1.542C60.5777 1.02067 61.439 0.76 62.5383 0.76H67.2983C67.5137 0.76 67.6667 0.811 67.7573 0.913C67.8593 1.00367 67.9103 1.15667 67.9103 1.372V3.395C67.9103 3.61033 67.8593 3.769 67.7573 3.871C67.6667 3.96167 67.5137 4.007 67.2983 4.007H63.3373C63.19 4.007 63.0767 4.058 62.9973 4.16C62.918 4.25067 62.8783 4.36967 62.8783 4.517C62.8783 4.66433 62.918 4.789 62.9973 4.891C63.0767 4.993 63.19 5.04967 63.3373 5.061L65.8703 5.401C66.6637 5.51433 67.304 5.775 67.7913 6.183C68.2787 6.591 68.5223 7.271 68.5223 8.223V10.008C68.5223 10.9713 68.205 11.7137 67.5703 12.235C66.947 12.745 66.0913 13 65.0033 13ZM72.12 7.135H70.811C70.5956 7.135 70.437 7.08967 70.335 6.999C70.2443 6.897 70.199 6.73833 70.199 6.523V5.843C70.199 5.62767 70.2443 5.47467 70.335 5.384C70.437 5.282 70.5956 5.231 70.811 5.231H71.984C72.1313 5.231 72.2446 5.19133 72.324 5.112C72.4033 5.02133 72.443 4.90233 72.443 4.755V4.5H70.59C70.3746 4.5 70.216 4.45467 70.114 4.364C70.0233 4.262 69.978 4.10333 69.978 3.888V1.372C69.978 1.15667 70.0233 1.00367 70.114 0.913C70.216 0.811 70.3746 0.76 70.59 0.76H74.024C74.2393 0.76 74.3923 0.811 74.483 0.913C74.585 1.00367 74.636 1.15667 74.636 1.372V4.568C74.636 5.42933 74.4036 6.07533 73.939 6.506C73.4856 6.92533 72.8793 7.135 72.12 7.135ZM85.2404 13H77.3524C77.137 13 76.9784 12.9547 76.8764 12.864C76.7857 12.762 76.7404 12.6033 76.7404 12.388V1.372C76.7404 1.15667 76.7857 1.00367 76.8764 0.913C76.9784 0.811 77.137 0.76 77.3524 0.76H85.2404C85.4557 0.76 85.6087 0.811 85.6994 0.913C85.8014 1.00367 85.8524 1.15667 85.8524 1.372V3.361C85.8524 3.57633 85.8014 3.735 85.6994 3.837C85.6087 3.92767 85.4557 3.973 85.2404 3.973H80.5484V5.282H83.8634C84.0787 5.282 84.2317 5.333 84.3224 5.435C84.4244 5.52567 84.4754 5.67867 84.4754 5.894V7.713C84.4754 7.92833 84.4244 8.087 84.3224 8.189C84.2317 8.27967 84.0787 8.325 83.8634 8.325H80.5484V9.787H85.2404C85.4557 9.787 85.6087 9.838 85.6994 9.94C85.8014 10.0307 85.8524 10.1837 85.8524 10.399V12.388C85.8524 12.6033 85.8014 12.762 85.6994 12.864C85.6087 12.9547 85.4557 13 85.2404 13ZM91.0254 13H88.4754C88.2601 13 88.1014 12.9547 87.9994 12.864C87.9088 12.762 87.8634 12.6033 87.8634 12.388V1.372C87.8634 1.15667 87.9088 1.00367 87.9994 0.913C88.1014 0.811 88.2601 0.76 88.4754 0.76H90.2434C90.4588 0.76 90.6401 0.793999 90.7874 0.861999C90.9461 0.93 91.0991 1.049 91.2464 1.219L94.5444 4.993V1.372C94.5444 1.15667 94.5898 1.00367 94.6804 0.913C94.7824 0.811 94.9411 0.76 95.1564 0.76H97.7064C97.9218 0.76 98.0748 0.811 98.1654 0.913C98.2674 1.00367 98.3184 1.15667 98.3184 1.372V12.388C98.3184 12.6033 98.2674 12.762 98.1654 12.864C98.0748 12.9547 97.9218 13 97.7064 13H95.1564C94.9411 13 94.7824 12.9547 94.6804 12.864C94.5898 12.762 94.5444 12.6033 94.5444 12.388V10.297L91.6374 6.778V12.388C91.6374 12.6033 91.5864 12.762 91.4844 12.864C91.3938 12.9547 91.2408 13 91.0254 13Z" fill="#E4E4E7"/>
<path d="M35.851 27H30.479C30.2637 27 30.105 26.9547 30.003 26.864C29.9123 26.762 29.867 26.6033 29.867 26.388V24.399C29.867 24.1837 29.9123 24.0307 30.003 23.94C30.105 23.838 30.2637 23.787 30.479 23.787H35.052C35.1993 23.787 35.307 23.7417 35.375 23.651C35.4543 23.549 35.494 23.43 35.494 23.294C35.494 23.1013 35.4543 22.9597 35.375 22.869C35.307 22.7783 35.1993 22.7273 35.052 22.716L32.502 22.359C31.7087 22.2457 31.0683 21.985 30.581 21.577C30.105 21.169 29.867 20.489 29.867 19.537V17.752C29.867 16.7887 30.1787 16.052 30.802 15.542C31.4253 15.0207 32.2867 14.76 33.386 14.76H38.146C38.3613 14.76 38.5143 14.811 38.605 14.913C38.707 15.0037 38.758 15.1567 38.758 15.372V17.395C38.758 17.6103 38.707 17.769 38.605 17.871C38.5143 17.9617 38.3613 18.007 38.146 18.007H34.185C34.0377 18.007 33.9243 18.058 33.845 18.16C33.7657 18.2507 33.726 18.3697 33.726 18.517C33.726 18.6643 33.7657 18.789 33.845 18.891C33.9243 18.993 34.0377 19.0497 34.185 19.061L36.718 19.401C37.5113 19.5143 38.1517 19.775 38.639 20.183C39.1263 20.591 39.37 21.271 39.37 22.223V24.008C39.37 24.9713 39.0527 25.7137 38.418 26.235C37.7947 26.745 36.939 27 35.851 27ZM46.8436 27H44.0896C43.8743 27 43.7156 26.9547 43.6136 26.864C43.523 26.762 43.4776 26.6033 43.4776 26.388V18.041H40.9786C40.7633 18.041 40.6046 17.9957 40.5026 17.905C40.412 17.803 40.3666 17.6443 40.3666 17.429V15.372C40.3666 15.1567 40.412 15.0037 40.5026 14.913C40.6046 14.811 40.7633 14.76 40.9786 14.76H49.9546C50.17 14.76 50.323 14.811 50.4136 14.913C50.5156 15.0037 50.5666 15.1567 50.5666 15.372V17.429C50.5666 17.6443 50.5156 17.803 50.4136 17.905C50.323 17.9957 50.17 18.041 49.9546 18.041H47.4556V26.388C47.4556 26.6033 47.4046 26.762 47.3026 26.864C47.212 26.9547 47.059 27 46.8436 27ZM56.0619 17.82V19.996H57.3369C57.6315 19.996 57.8299 19.9223 57.9319 19.775C58.0339 19.6163 58.0849 19.4237 58.0849 19.197V18.619C58.0849 18.3923 58.0339 18.2053 57.9319 18.058C57.8299 17.8993 57.6315 17.82 57.3369 17.82H56.0619ZM55.4499 27H52.8319C52.6165 27 52.4579 26.9547 52.3559 26.864C52.2652 26.762 52.2199 26.6033 52.2199 26.388V15.372C52.2199 15.1567 52.2652 15.0037 52.3559 14.913C52.4579 14.811 52.6165 14.76 52.8319 14.76H58.4929C59.7622 14.76 60.6349 15.0263 61.1109 15.559C61.5982 16.0803 61.8419 16.7603 61.8419 17.599V18.381C61.8419 18.857 61.7682 19.265 61.6209 19.605C61.4849 19.9337 61.2412 20.1717 60.8899 20.319C61.5019 20.387 61.9949 20.6363 62.3689 21.067C62.7542 21.4977 62.9469 22.07 62.9469 22.784V26.388C62.9469 26.6033 62.8959 26.762 62.7939 26.864C62.7032 26.9547 62.5502 27 62.3349 27H59.6999C59.4845 27 59.3259 26.9547 59.2239 26.864C59.1332 26.762 59.0879 26.6033 59.0879 26.388V23.787C59.0879 23.5377 59.0369 23.3563 58.9349 23.243C58.8442 23.1183 58.6799 23.056 58.4419 23.056H56.0619V26.388C56.0619 26.6033 56.0109 26.762 55.9089 26.864C55.8182 26.9547 55.6652 27 55.4499 27ZM73.3537 27H65.4657C65.2503 27 65.0917 26.9547 64.9897 26.864C64.899 26.762 64.8537 26.6033 64.8537 26.388V15.372C64.8537 15.1567 64.899 15.0037 64.9897 14.913C65.0917 14.811 65.2503 14.76 65.4657 14.76H73.3537C73.569 14.76 73.722 14.811 73.8127 14.913C73.9147 15.0037 73.9657 15.1567 73.9657 15.372V17.361C73.9657 17.5763 73.9147 17.735 73.8127 17.837C73.722 17.9277 73.569 17.973 73.3537 17.973H68.6617V19.282H71.9767C72.192 19.282 72.345 19.333 72.4357 19.435C72.5377 19.5257 72.5887 19.6787 72.5887 19.894V21.713C72.5887 21.9283 72.5377 22.087 72.4357 22.189C72.345 22.2797 72.192 22.325 71.9767 22.325H68.6617V23.787H73.3537C73.569 23.787 73.722 23.838 73.8127 23.94C73.9147 24.0307 73.9657 24.1837 73.9657 24.399V26.388C73.9657 26.6033 73.9147 26.762 73.8127 26.864C73.722 26.9547 73.569 27 73.3537 27ZM80.4137 18.33L79.6147 20.914H82.2837L81.4847 18.33C81.4394 18.228 81.3884 18.1543 81.3317 18.109C81.2864 18.0637 81.2297 18.041 81.1617 18.041H80.7367C80.6687 18.041 80.6064 18.0637 80.5497 18.109C80.5044 18.1543 80.459 18.228 80.4137 18.33ZM79.4447 26.388C79.4447 26.6033 79.3937 26.762 79.2917 26.864C79.201 26.9547 79.048 27 78.8327 27H76.3337C76.1184 27 75.9597 26.9547 75.8577 26.864C75.767 26.762 75.7217 26.6033 75.7217 26.388V21.9C75.7217 21.56 75.7727 21.169 75.8747 20.727C75.988 20.285 76.158 19.7693 76.3847 19.18L77.8637 15.321C77.9317 15.1283 78.0337 14.9867 78.1697 14.896C78.317 14.8053 78.504 14.76 78.7307 14.76H83.3037C83.519 14.76 83.6947 14.8053 83.8307 14.896C83.978 14.9867 84.0857 15.1283 84.1537 15.321L85.6327 19.18C85.8594 19.7693 86.0237 20.285 86.1257 20.727C86.239 21.169 86.2957 21.56 86.2957 21.9V26.388C86.2957 26.6033 86.2447 26.762 86.1427 26.864C86.052 26.9547 85.899 27 85.6837 27H83.1167C82.89 27 82.72 26.9547 82.6067 26.864C82.5047 26.762 82.4537 26.6033 82.4537 26.388V24.008H79.4447V26.388ZM91.5397 27H89.0067C88.7913 27 88.6327 26.9547 88.5307 26.864C88.44 26.762 88.3947 26.6033 88.3947 26.388V15.372C88.3947 15.1567 88.44 15.0037 88.5307 14.913C88.6327 14.811 88.7913 14.76 89.0067 14.76H91.7437C91.925 14.76 92.0723 14.7997 92.1857 14.879C92.3103 14.9583 92.4237 15.0887 92.5257 15.27L94.0557 18.041C94.1123 18.143 94.1577 18.2167 94.1917 18.262C94.237 18.3073 94.2937 18.33 94.3617 18.33H94.5147C94.5827 18.33 94.6337 18.3073 94.6677 18.262C94.713 18.2167 94.764 18.143 94.8207 18.041L96.3337 15.27C96.4357 15.0887 96.5433 14.9583 96.6567 14.879C96.7813 14.7997 96.9343 14.76 97.1157 14.76H99.8697C100.085 14.76 100.238 14.811 100.329 14.913C100.431 15.0037 100.482 15.1567 100.482 15.372V26.388C100.482 26.6033 100.431 26.762 100.329 26.864C100.238 26.9547 100.085 27 99.8697 27H97.2517C97.0363 27 96.8777 26.9547 96.7757 26.864C96.685 26.762 96.6397 26.6033 96.6397 26.388V20.404L95.6367 22.257C95.5347 22.4497 95.41 22.5913 95.2627 22.682C95.1267 22.7613 94.951 22.801 94.7357 22.801H94.0557C93.8403 22.801 93.659 22.7613 93.5117 22.682C93.3757 22.5913 93.2567 22.4497 93.1547 22.257L92.1517 20.404V26.388C92.1517 26.6033 92.1007 26.762 91.9987 26.864C91.908 26.9547 91.755 27 91.5397 27Z" fill="#E4E4E7"/>
<path d="M17.8972 13.3775L5.24883 20.8123C2.91618 22.1837 0 20.4696 0 17.7269V23.4598C0 26.9496 3.7107 29.1307 6.67922 27.386L22.7736 17.9255C25.7421 16.1804 25.7421 11.818 22.7736 10.0731L17.8972 7.20675C20.2301 8.57811 20.2301 12.0064 17.8972 13.3775Z" fill="url(#paint0_linear_1321_92)"/>
<path d="M0 4.54041V10.2733C0 7.53059 2.91618 5.81651 5.24883 7.18787L17.8972 14.6226C20.2301 15.9939 20.2301 19.4221 17.8972 20.7935L22.7736 17.9271C25.7421 16.182 25.7421 11.8197 22.7736 10.0747L14.7264 5.34449L6.67922 0.614243C5.96185 0.19265 5.20067 0.000139236 4.45963 0.000139236C2.13358 -0.000188724 0 1.89378 0 4.54041Z" fill="url(#paint1_linear_1321_92)"/>
<path d="M0 4.54021V17.7268C0 20.4694 2.91618 22.1836 5.24883 20.8123L6.30668 20.1906V6.56585C6.30668 3.82329 9.2227 2.1092 11.5557 3.48057L6.67922 0.614036C5.96185 0.192444 5.20067 -6.79891e-05 4.45963 -6.79891e-05C2.13358 -0.000395949 0 1.89357 0 4.54021Z" fill="url(#paint2_linear_1321_92)"/>
<defs>
<linearGradient id="paint0_linear_1321_92" x1="22.0516" y1="8.762" x2="0.892949" y2="26.2002" gradientUnits="userSpaceOnUse">
<stop stop-color="#5D05FF"/>
<stop offset="1" stop-color="#46287E"/>
</linearGradient>
<linearGradient id="paint1_linear_1321_92" x1="12.5" y1="0.000104534" x2="12.5" y2="20.7934" gradientUnits="userSpaceOnUse">
<stop stop-color="#5D05FF"/>
<stop offset="1" stop-color="#46287E"/>
</linearGradient>
<linearGradient id="paint2_linear_1321_92" x1="5.7778" y1="-0.000102935" x2="5.7778" y2="21.2949" gradientUnits="userSpaceOnUse">
<stop stop-color="#46287E"/>
<stop offset="1" stop-color="#5D05FF"/>
</linearGradient>
</defs>
</svg>
